<mxfile host="Electron" modified="2024-01-20T07:20:40.037Z" agent="Mozilla/5.0 (Windows NT 10.0; Win64; x64) AppleWebKit/537.36 (KHTML, like Gecko) draw.io/22.1.2 Chrome/114.0.5735.289 Electron/25.9.4 Safari/537.36" etag="ZJqr-0gKw192X__klk_L" version="22.1.2" type="device">
  <diagram name="Page-1" id="9361dd3d-8414-5efd-6122-117bd74ce7a7">
    <mxGraphModel dx="1274" dy="2804" grid="1" gridSize="10" guides="1" tooltips="1" connect="1" arrows="1" fold="1" page="0" pageScale="1.5" pageWidth="826" pageHeight="1169" background="none" math="0" shadow="0">
      <root>
        <mxCell id="0" />
        <mxCell id="1" parent="0" />
        <mxCell id="YVtpdUTHB4OTW118jndL-3" value="ManagersThread" style="shape=umlFrame;whiteSpace=wrap;html=1;pointerEvents=0;fillColor=#dae8fc;strokeColor=#6c8ebf;width=120;height=40;" parent="1" vertex="1">
          <mxGeometry x="1160" y="-680" width="2360" height="1250" as="geometry" />
        </mxCell>
        <mxCell id="YVtpdUTHB4OTW118jndL-1" value="GuiThread" style="shape=umlFrame;whiteSpace=wrap;html=1;pointerEvents=0;fillColor=#dae8fc;strokeColor=#6c8ebf;width=90;height=40;" parent="1" vertex="1">
          <mxGeometry x="1160" y="-1460" width="1720" height="700" as="geometry" />
        </mxCell>
        <mxCell id="an-mxuxxgJ9ttJCiLn0e-1" value="«interface»&lt;br&gt;&lt;b&gt;AbstractGui&lt;/b&gt;" style="html=1;whiteSpace=wrap;" parent="1" vertex="1">
          <mxGeometry x="1840" y="-1440" width="160" height="40" as="geometry" />
        </mxCell>
        <mxCell id="an-mxuxxgJ9ttJCiLn0e-13" value="1" style="endArrow=open;html=1;endSize=12;startArrow=diamondThin;startSize=14;startFill=1;edgeStyle=orthogonalEdgeStyle;align=left;verticalAlign=bottom;rounded=0;exitX=0.5;exitY=0;exitDx=0;exitDy=0;" parent="1" source="YVtpdUTHB4OTW118jndL-18" target="YVtpdUTHB4OTW118jndL-21" edge="1">
          <mxGeometry x="-1" y="-10" relative="1" as="geometry">
            <mxPoint x="1920" y="-320.0000000000002" as="sourcePoint" />
            <mxPoint x="1920" y="-480" as="targetPoint" />
            <mxPoint as="offset" />
          </mxGeometry>
        </mxCell>
        <mxCell id="YVtpdUTHB4OTW118jndL-2" value="&lt;p style=&quot;margin: 0px ; margin-top: 4px ; text-align: center&quot;&gt;&lt;/p&gt;&lt;span&gt;&lt;div style=&quot;text-align: center&quot;&gt;&lt;b style=&quot;background-color: initial;&quot;&gt;LogSystem&lt;/b&gt;&lt;br&gt;&lt;/div&gt;&lt;/span&gt;&lt;hr size=&quot;1&quot;&gt;&lt;p style=&quot;margin: 0px ; margin-left: 4px&quot;&gt;+ &lt;u&gt;instance(void) : LogSystem*&lt;/u&gt;&lt;/p&gt;&lt;p style=&quot;margin: 0px ; margin-left: 4px&quot;&gt;&lt;span&gt;&lt;br&gt;&lt;/span&gt;&lt;/p&gt;&lt;p style=&quot;margin: 0px ; margin-left: 4px&quot;&gt;&lt;span&gt;+ generate(const QString&amp;amp;): void&amp;nbsp;&lt;/span&gt;&lt;br&gt;&lt;/p&gt;&lt;p style=&quot;margin: 0px ; margin-left: 4px&quot;&gt;+ clear(void): void&amp;nbsp;&lt;/p&gt;&lt;p style=&quot;margin: 0px 0px 0px 4px&quot;&gt;&lt;br&gt;&lt;/p&gt;" style="verticalAlign=top;align=left;overflow=fill;fontSize=12;fontFamily=Helvetica;html=1;" parent="1" vertex="1">
          <mxGeometry x="1280" y="-1360" width="280" height="120" as="geometry" />
        </mxCell>
        <mxCell id="YVtpdUTHB4OTW118jndL-5" value="&lt;p style=&quot;margin: 0px ; margin-top: 4px ; text-align: center&quot;&gt;«interface»&lt;br&gt;&lt;/p&gt;&lt;p style=&quot;margin: 0px ; margin-top: 4px ; text-align: center&quot;&gt;&lt;b&gt;AbstractInterractionSystem&lt;/b&gt;&lt;/p&gt;&lt;hr size=&quot;1&quot;&gt;&lt;p style=&quot;text-align: center ; margin: 0px 0px 0px 4px&quot;&gt;«abstract»&lt;br&gt;&lt;/p&gt;&lt;p style=&quot;margin: 0px ; margin-left: 4px&quot;&gt;+ operationFinished(const QString&amp;amp;&lt;span style=&quot;border-color: var(--border-color); background-color: initial;&quot;&gt;) : void&lt;/span&gt;&lt;br&gt;&lt;/p&gt;&lt;p style=&quot;margin: 0px ; margin-left: 4px&quot;&gt;+ operationStarted(const QString&amp;amp;, ReturnStatus&lt;span style=&quot;border-color: var(--border-color); background-color: initial;&quot;&gt;) : void&lt;/span&gt;&lt;br&gt;&lt;/p&gt;" style="verticalAlign=top;align=left;overflow=fill;fontSize=12;fontFamily=Helvetica;html=1;" parent="1" vertex="1">
          <mxGeometry x="1240" y="-1200" width="320" height="120" as="geometry" />
        </mxCell>
        <mxCell id="YVtpdUTHB4OTW118jndL-7" value="1" style="endArrow=open;html=1;endSize=12;startArrow=diamondThin;startSize=14;startFill=1;edgeStyle=orthogonalEdgeStyle;align=left;verticalAlign=bottom;rounded=0;exitX=1;exitY=0.5;exitDx=0;exitDy=0;entryX=0;entryY=0.75;entryDx=0;entryDy=0;" parent="1" source="YVtpdUTHB4OTW118jndL-5" target="YVtpdUTHB4OTW118jndL-9" edge="1">
          <mxGeometry x="-0.8857" relative="1" as="geometry">
            <mxPoint x="1690" y="-1050" as="sourcePoint" />
            <mxPoint x="1840" y="-979.9999999999998" as="targetPoint" />
            <Array as="points">
              <mxPoint x="1680" y="-1140" />
              <mxPoint x="1680" y="-1230" />
            </Array>
            <mxPoint as="offset" />
          </mxGeometry>
        </mxCell>
        <mxCell id="YVtpdUTHB4OTW118jndL-8" value="1" style="endArrow=open;html=1;endSize=12;startArrow=diamondThin;startSize=14;startFill=1;edgeStyle=orthogonalEdgeStyle;align=left;verticalAlign=bottom;rounded=0;exitX=1;exitY=0.5;exitDx=0;exitDy=0;entryX=0;entryY=0.5;entryDx=0;entryDy=0;" parent="1" source="YVtpdUTHB4OTW118jndL-2" target="YVtpdUTHB4OTW118jndL-9" edge="1">
          <mxGeometry x="-0.8621" relative="1" as="geometry">
            <mxPoint x="1570" y="-890" as="sourcePoint" />
            <mxPoint x="1840" y="-969.9999999999998" as="targetPoint" />
            <Array as="points">
              <mxPoint x="1680" y="-1300" />
              <mxPoint x="1680" y="-1260" />
            </Array>
            <mxPoint as="offset" />
          </mxGeometry>
        </mxCell>
        <mxCell id="YVtpdUTHB4OTW118jndL-10" value="&lt;p style=&quot;margin: 0px ; margin-top: 4px ; text-align: center&quot;&gt;«interface»&lt;br&gt;&lt;/p&gt;&lt;p style=&quot;margin: 0px ; margin-top: 4px ; text-align: center&quot;&gt;&lt;b&gt;AbstractManager&lt;/b&gt;&lt;/p&gt;&lt;hr size=&quot;1&quot;&gt;&lt;p style=&quot;text-align: center ; margin: 0px 0px 0px 4px&quot;&gt;«abstract»&lt;br&gt;&lt;/p&gt;&lt;p style=&quot;margin: 0px 0px 0px 4px;&quot;&gt;+ type(void) : ManagerType&lt;br&gt;&lt;/p&gt;&lt;p style=&quot;margin: 0px 0px 0px 4px;&quot;&gt;+ onInstanceThreadStarted_slot(void) : void&amp;nbsp;&lt;/p&gt;&lt;p style=&quot;text-align: center ; margin: 0px 0px 0px 4px&quot;&gt;«signals»&lt;br&gt;&lt;/p&gt;&lt;p style=&quot;margin: 0px 0px 0px 4px&quot;&gt;+ logging(const QString&amp;amp;) : void&lt;/p&gt;&lt;p style=&quot;margin: 0px 0px 0px 4px&quot;&gt;+ executionFinished(const QString&amp;amp;, ReturnStatus) : void&lt;/p&gt;&lt;p style=&quot;margin: 0px 0px 0px 4px&quot;&gt;+ executionStarted(const QString&amp;amp;) : void&lt;/p&gt;" style="verticalAlign=top;align=left;overflow=fill;fontSize=12;fontFamily=Helvetica;html=1;" parent="1" vertex="1">
          <mxGeometry x="1740" y="-640" width="360" height="160" as="geometry" />
        </mxCell>
        <mxCell id="YVtpdUTHB4OTW118jndL-11" value="" style="endArrow=open;html=1;endSize=12;startArrow=diamondThin;startSize=14;startFill=1;edgeStyle=orthogonalEdgeStyle;align=left;verticalAlign=bottom;rounded=0;exitX=0.5;exitY=1;exitDx=0;exitDy=0;" parent="1" source="an-mxuxxgJ9ttJCiLn0e-1" target="YVtpdUTHB4OTW118jndL-9" edge="1">
          <mxGeometry x="-0.7333" relative="1" as="geometry">
            <mxPoint x="1920" y="-1160" as="sourcePoint" />
            <mxPoint x="1920" y="-1000" as="targetPoint" />
            <Array as="points" />
            <mxPoint as="offset" />
          </mxGeometry>
        </mxCell>
        <mxCell id="YVtpdUTHB4OTW118jndL-9" value="&lt;p style=&quot;margin: 0px ; margin-top: 4px ; text-align: center&quot;&gt;«interface»&lt;br&gt;&lt;/p&gt;&lt;p style=&quot;margin: 0px ; margin-top: 4px ; text-align: center&quot;&gt;&lt;b&gt;AbstractGuiKernel&lt;/b&gt;&lt;/p&gt;&lt;hr size=&quot;1&quot;&gt;&lt;p style=&quot;text-align: center ; margin: 0px 0px 0px 4px&quot;&gt;«abstract»&lt;br&gt;&lt;/p&gt;&lt;p style=&quot;margin: 0px ; margin-left: 4px&quot;&gt;&lt;br&gt;&lt;/p&gt;" style="verticalAlign=top;align=left;overflow=fill;fontSize=12;fontFamily=Helvetica;html=1;" parent="1" vertex="1">
          <mxGeometry x="1780" y="-1320" width="280" height="120" as="geometry" />
        </mxCell>
        <mxCell id="YVtpdUTHB4OTW118jndL-13" value="&lt;p style=&quot;margin: 0px ; margin-top: 4px ; text-align: center&quot;&gt;&lt;/p&gt;&lt;span&gt;&lt;div style=&quot;text-align: center&quot;&gt;&lt;span&gt;«interface»&lt;/span&gt;&lt;/div&gt;&lt;/span&gt;&lt;p style=&quot;margin: 0px ; margin-top: 4px ; text-align: center&quot;&gt;&lt;b&gt;AbstractSqlDatabase&lt;/b&gt;&lt;b&gt;&lt;br&gt;&lt;/b&gt;&lt;/p&gt;&lt;hr size=&quot;1&quot;&gt;&lt;p style=&quot;border-color: var(--border-color); text-align: center; margin: 0px 0px 0px 4px;&quot;&gt;«abstract»&lt;br style=&quot;border-color: var(--border-color);&quot;&gt;&lt;/p&gt;&lt;p style=&quot;margin: 0px ; margin-left: 4px&quot;&gt;+ connect(void): bool&lt;br&gt;&lt;/p&gt;&lt;p style=&quot;margin: 0px ; margin-left: 4px&quot;&gt;+ disconnect(void): bool&lt;/p&gt;&lt;p style=&quot;margin: 0px 0px 0px 4px&quot;&gt;&lt;br&gt;&lt;/p&gt;&lt;p style=&quot;margin: 0px 0px 0px 4px&quot;&gt;+ checkConnection(void): bool&lt;br&gt;&lt;/p&gt;&lt;p style=&quot;margin: 0px 0px 0px 4px&quot;&gt;+ openTransaction(void): bool&lt;/p&gt;&lt;p style=&quot;margin: 0px 0px 0px 4px&quot;&gt;+ commitTransaction(void) : bool&lt;/p&gt;&lt;p style=&quot;margin: 0px 0px 0px 4px&quot;&gt;&lt;br&gt;&lt;/p&gt;&lt;p style=&quot;margin: 0px 0px 0px 4px&quot;&gt;+ getCurrentOrder(void) : Qt::SortOrder&lt;/p&gt;&lt;p style=&quot;margin: 0px 0px 0px 4px&quot;&gt;+ setCurrentOrder(Qt::SortOrder): void&lt;/p&gt;&lt;p style=&quot;margin: 0px 0px 0px 4px&quot;&gt;&lt;br&gt;&lt;/p&gt;&lt;p style=&quot;margin: 0px 0px 0px 4px&quot;&gt;+ getRecordMaxCount(void) : size_t&lt;/p&gt;&lt;p style=&quot;margin: 0px 0px 0px 4px&quot;&gt;+ setRecordMaxCount(size_t) : void&lt;/p&gt;&lt;p style=&quot;margin: 0px 0px 0px 4px&quot;&gt;&lt;br&gt;&lt;/p&gt;&lt;p style=&quot;margin: 0px 0px 0px 4px&quot;&gt;+ execCustomRequest(const QString&amp;amp;, SqlQueryValues&amp;amp;) : bool&lt;/p&gt;&lt;p style=&quot;margin: 0px 0px 0px 4px&quot;&gt;&lt;br&gt;&lt;/p&gt;&lt;p style=&quot;margin: 0px 0px 0px 4px&quot;&gt;+ createRecords(const QString&amp;amp;,&amp;nbsp;const SqlQueryValues&amp;amp;) : bool&lt;/p&gt;&lt;p style=&quot;margin: 0px 0px 0px 4px&quot;&gt;+ readRecords(const QString&amp;amp;,&amp;nbsp;const SqlQueryValues&amp;amp;) : bool&lt;/p&gt;&lt;p style=&quot;margin: 0px 0px 0px 4px&quot;&gt;+ readRecords(const QString&amp;amp;,const QString&amp;amp;,const SqlQueryValues&amp;amp;) : bool&lt;br&gt;&lt;/p&gt;&lt;p style=&quot;margin: 0px 0px 0px 4px&quot;&gt;+ readLastRecord(const QString&amp;amp;,&amp;nbsp;const SqlQueryValues&amp;amp;) : bool&lt;/p&gt;&lt;p style=&quot;margin: 0px 0px 0px 4px&quot;&gt;+ updateRecords(const QString&amp;amp;,const SqlQueryValues&amp;amp;) : bool&lt;br&gt;&lt;/p&gt;&lt;p style=&quot;border-color: var(--border-color); margin: 0px 0px 0px 4px;&quot;&gt;+ updateRecords(const QString&amp;amp;,const QString&amp;amp;,const SqlQueryValues&amp;amp;) : bool&lt;/p&gt;&lt;p style=&quot;margin: 0px 0px 0px 4px&quot;&gt;+ deleteRecords(const QString&amp;amp;,&amp;nbsp;const SqlQueryValues&amp;amp;) : bool&lt;/p&gt;&lt;p style=&quot;margin: 0px 0px 0px 4px&quot;&gt;&lt;br&gt;&lt;/p&gt;&lt;p style=&quot;margin: 0px 0px 0px 4px&quot;&gt;+ clearTable(const QString&amp;amp;) : bool&lt;/p&gt;&lt;p style=&quot;margin: 0px 0px 0px 4px&quot;&gt;&lt;br&gt;&lt;/p&gt;&lt;p style=&quot;margin: 0px 0px 0px 4px&quot;&gt;+ readMergedRecords(const QStringList&amp;amp;,&amp;nbsp;&lt;span style=&quot;background-color: initial;&quot;&gt;const QString&amp;amp;,&amp;nbsp;&lt;/span&gt;&lt;span style=&quot;background-color: initial;&quot;&gt;const SqlQueryValues&amp;amp;&lt;/span&gt;&lt;span style=&quot;background-color: initial;&quot;&gt;) : bool&lt;/span&gt;&lt;/p&gt;&lt;p style=&quot;margin: 0px 0px 0px 4px&quot;&gt;+ updateMergedRecords(const QStringList&amp;amp;,&amp;nbsp;const QString&amp;amp;,&amp;nbsp;&lt;span style=&quot;border-color: var(--border-color); background-color: initial;&quot;&gt;const SqlQueryValues&amp;amp;&lt;/span&gt;) : bool&lt;/p&gt;&lt;p style=&quot;margin: 0px 0px 0px 4px&quot;&gt;+ deleteMergedRecords(const QStringList&amp;amp;,&amp;nbsp;&lt;span style=&quot;background-color: initial;&quot;&gt;const QString&amp;amp;&lt;/span&gt;&lt;span style=&quot;background-color: initial;&quot;&gt;) : bool&lt;/span&gt;&lt;/p&gt;&lt;p style=&quot;margin: 0px 0px 0px 4px&quot;&gt;&lt;br&gt;&lt;/p&gt;&lt;p style=&quot;margin: 0px 0px 0px 4px&quot;&gt;+ getRecordsCount(const QString&amp;amp;,&amp;nbsp;&lt;span style=&quot;background-color: initial;&quot;&gt;uint32_t&amp;amp;&lt;/span&gt;&lt;span style=&quot;background-color: initial;&quot;&gt;) : bool&lt;/span&gt;&lt;/p&gt;" style="verticalAlign=top;align=left;overflow=fill;fontSize=12;fontFamily=Helvetica;html=1;" parent="1" vertex="1">
          <mxGeometry x="2680" y="-400" width="520" height="520" as="geometry" />
        </mxCell>
        <mxCell id="YVtpdUTHB4OTW118jndL-14" value="&lt;p style=&quot;margin: 0px ; margin-top: 4px ; text-align: center&quot;&gt;&lt;/p&gt;&lt;span&gt;&lt;div style=&quot;text-align: center&quot;&gt;&lt;span&gt;«singleton»&lt;/span&gt;&lt;/div&gt;&lt;/span&gt;&lt;p style=&quot;margin: 0px ; margin-top: 4px ; text-align: center&quot;&gt;&lt;b&gt;GlobalEnvironment&lt;/b&gt;&lt;/p&gt;&lt;hr size=&quot;1&quot;&gt;&lt;p style=&quot;margin: 0px ; margin-left: 4px&quot;&gt;+ &lt;u&gt;instance(void) : GlobalContext*&lt;/u&gt;&lt;/p&gt;&lt;p style=&quot;margin: 0px ; margin-left: 4px&quot;&gt;&lt;span&gt;&lt;br&gt;&lt;/span&gt;&lt;/p&gt;&lt;p style=&quot;margin: 0px ; margin-left: 4px&quot;&gt;&lt;span&gt;+ register(const QObject* obj): void&lt;/span&gt;&lt;br&gt;&lt;/p&gt;&lt;p style=&quot;margin: 0px ; margin-left: 4px&quot;&gt;+ get(const QString&amp;amp; name): const QObject*&amp;nbsp;&lt;/p&gt;&lt;p style=&quot;margin: 0px 0px 0px 4px&quot;&gt;&lt;br&gt;&lt;/p&gt;" style="verticalAlign=top;align=left;overflow=fill;fontSize=12;fontFamily=Helvetica;html=1;" parent="1" vertex="1">
          <mxGeometry x="2560" y="-1320" width="280" height="120" as="geometry" />
        </mxCell>
        <mxCell id="YVtpdUTHB4OTW118jndL-15" value="&lt;p style=&quot;margin: 0px ; margin-top: 4px ; text-align: center&quot;&gt;«interface»&lt;br&gt;&lt;/p&gt;&lt;p style=&quot;margin: 0px ; margin-top: 4px ; text-align: center&quot;&gt;&lt;b&gt;AbstractInputDialog&lt;/b&gt;&lt;b&gt;&lt;br&gt;&lt;/b&gt;&lt;/p&gt;&lt;hr size=&quot;1&quot;&gt;&lt;p style=&quot;text-align: center ; margin: 0px 0px 0px 4px&quot;&gt;«abstract»&lt;br&gt;&lt;/p&gt;&lt;p style=&quot;margin: 0px ; margin-left: 4px&quot;&gt;&lt;span&gt;+ getData(StringDictionary&amp;amp;): void&lt;/span&gt;&lt;br&gt;&lt;/p&gt;&lt;p style=&quot;margin: 0px ; margin-left: 4px&quot;&gt;&lt;span&gt;+ type(void) : InputDialogType&lt;/span&gt;&lt;/p&gt;" style="verticalAlign=top;align=left;overflow=fill;fontSize=12;fontFamily=Helvetica;html=1;" parent="1" vertex="1">
          <mxGeometry x="2200" y="-1320" width="280" height="120" as="geometry" />
        </mxCell>
        <mxCell id="YVtpdUTHB4OTW118jndL-16" value="1" style="endArrow=open;html=1;endSize=12;startArrow=diamondThin;startSize=14;startFill=1;edgeStyle=orthogonalEdgeStyle;align=left;verticalAlign=bottom;rounded=0;exitX=1;exitY=0.5;exitDx=0;exitDy=0;entryX=0;entryY=0.5;entryDx=0;entryDy=0;" parent="1" source="YVtpdUTHB4OTW118jndL-9" target="YVtpdUTHB4OTW118jndL-15" edge="1">
          <mxGeometry x="-0.7333" relative="1" as="geometry">
            <mxPoint x="1880" y="-1050" as="sourcePoint" />
            <mxPoint x="2140" y="-1140" as="targetPoint" />
            <Array as="points">
              <mxPoint x="2110" y="-1260" />
              <mxPoint x="2110" y="-1260" />
            </Array>
            <mxPoint as="offset" />
          </mxGeometry>
        </mxCell>
        <mxCell id="YVtpdUTHB4OTW118jndL-17" value="1" style="endArrow=open;html=1;endSize=12;startArrow=diamondThin;startSize=14;startFill=1;edgeStyle=orthogonalEdgeStyle;align=left;verticalAlign=bottom;rounded=0;exitX=0.5;exitY=1;exitDx=0;exitDy=0;entryX=0.5;entryY=0;entryDx=0;entryDy=0;" parent="1" source="YVtpdUTHB4OTW118jndL-9" target="YVtpdUTHB4OTW118jndL-10" edge="1">
          <mxGeometry x="-0.8966" relative="1" as="geometry">
            <mxPoint x="2030" y="-1050" as="sourcePoint" />
            <mxPoint x="2170" y="-1050" as="targetPoint" />
            <Array as="points">
              <mxPoint x="1920" y="-640" />
            </Array>
            <mxPoint as="offset" />
          </mxGeometry>
        </mxCell>
        <mxCell id="YVtpdUTHB4OTW118jndL-18" value="&lt;p style=&quot;margin: 0px ; margin-top: 4px ; text-align: center&quot;&gt;«interface»&lt;br&gt;&lt;/p&gt;&lt;b style=&quot;border-color: var(--border-color);&quot;&gt;&lt;div style=&quot;text-align: center;&quot;&gt;&lt;b style=&quot;background-color: initial; border-color: var(--border-color);&quot;&gt;AbstractAdministrationSystem&lt;/b&gt;&lt;/div&gt;&lt;/b&gt;&lt;hr size=&quot;1&quot;&gt;&lt;p style=&quot;text-align: center ; margin: 0px 0px 0px 4px&quot;&gt;«abstract»&lt;/p&gt;&lt;p style=&quot;margin: 0px 0px 0px 4px;&quot;&gt;+ setSqlDatabase(std::shared_ptr&amp;lt;AbstractSqlDatabase&amp;gt;) : void&lt;/p&gt;&lt;p style=&quot;margin: 0px 0px 0px 4px;&quot;&gt;&lt;br&gt;&lt;/p&gt;&lt;p style=&quot;margin: 0px 0px 0px 4px;&quot;&gt;+ createNewOrder(const StringDictionary&amp;amp;) : ReturnStatus&lt;/p&gt;&lt;p style=&quot;margin: 0px 0px 0px 4px;&quot;&gt;+ startOrderAssembling(const QString&amp;amp; id) : ReturnStatus&lt;br&gt;&lt;/p&gt;&lt;p style=&quot;margin: 0px 0px 0px 4px;&quot;&gt;+ stopOrderAssembling(const QString&amp;amp; id) : ReturnStatus&lt;br&gt;&lt;/p&gt;&lt;p style=&quot;margin: 0px 0px 0px 4px;&quot;&gt;&lt;br&gt;&lt;/p&gt;&lt;p style=&quot;border-color: var(--border-color); margin: 0px 0px 0px 4px;&quot;&gt;+ createNewProductionLine(const StringDictionary&amp;amp;) : ReturnStatus&lt;/p&gt;&lt;p style=&quot;border-color: var(--border-color); margin: 0px 0px 0px 4px;&quot;&gt;+ activateProductionLine(const QString&amp;amp;) : ReturnStatus&lt;br style=&quot;border-color: var(--border-color);&quot;&gt;&lt;/p&gt;&lt;p style=&quot;border-color: var(--border-color); margin: 0px 0px 0px 4px;&quot;&gt;+ activateAllProductionLines(void) : ReturnStatus&lt;br&gt;&lt;/p&gt;&lt;p style=&quot;border-color: var(--border-color); margin: 0px 0px 0px 4px;&quot;&gt;+ deactivateProductionLine(const QString&amp;amp;) : ReturnStatus&lt;br style=&quot;border-color: var(--border-color);&quot;&gt;&lt;/p&gt;&lt;p style=&quot;border-color: var(--border-color); margin: 0px 0px 0px 4px;&quot;&gt;+ deactivateAllProductionLines(void) : ReturnStatus&lt;/p&gt;&lt;p style=&quot;border-color: var(--border-color); margin: 0px 0px 0px 4px;&quot;&gt;&lt;br&gt;&lt;/p&gt;&lt;p style=&quot;border-color: var(--border-color); margin: 0px 0px 0px 4px;&quot;&gt;+ initIssuers(void) : ReturnStatus&lt;/p&gt;&lt;p style=&quot;border-color: var(--border-color); margin: 0px 0px 0px 4px;&quot;&gt;+ initTransportMasterKeys : ReturnStatus&lt;/p&gt;&lt;p style=&quot;border-color: var(--border-color); margin: 0px 0px 0px 4px;&quot;&gt;&lt;br&gt;&lt;/p&gt;&lt;p style=&quot;border-color: var(--border-color); margin: 0px 0px 0px 4px;&quot;&gt;+ rollbackProductionLine(const QString&amp;amp;) : ReturnStatus&lt;/p&gt;&lt;p style=&quot;border-color: var(--border-color); margin: 0px 0px 0px 4px;&quot;&gt;&lt;br&gt;&lt;/p&gt;&lt;p style=&quot;border-color: var(--border-color); margin: 0px 0px 0px 4px;&quot;&gt;+ releaseTransponder(const QString&amp;amp;) : ReturnStatus&lt;br&gt;&lt;/p&gt;&lt;p style=&quot;border-color: var(--border-color); margin: 0px 0px 0px 4px;&quot;&gt;+ releaseBox(const QString&amp;amp;) : ReturnStatus&lt;br&gt;&lt;/p&gt;&lt;p style=&quot;border-color: var(--border-color); margin: 0px 0px 0px 4px;&quot;&gt;+ releasePallet(const QString&amp;amp;) : ReturnStatus&lt;br&gt;&lt;/p&gt;&lt;p style=&quot;border-color: var(--border-color); margin: 0px 0px 0px 4px;&quot;&gt;+ releaseOrder(const QString&amp;amp;) : ReturnStatus&lt;br&gt;&lt;/p&gt;&lt;p style=&quot;border-color: var(--border-color); margin: 0px 0px 0px 4px;&quot;&gt;&lt;br&gt;&lt;/p&gt;&lt;p style=&quot;border-color: var(--border-color); margin: 0px 0px 0px 4px;&quot;&gt;+ refundTransponder(const QString&amp;amp;) : ReturnStatus&lt;br style=&quot;border-color: var(--border-color);&quot;&gt;&lt;/p&gt;&lt;p style=&quot;border-color: var(--border-color); margin: 0px 0px 0px 4px;&quot;&gt;+ refundBox(const QString&amp;amp;) : ReturnStatus&lt;br style=&quot;border-color: var(--border-color);&quot;&gt;&lt;/p&gt;&lt;p style=&quot;border-color: var(--border-color); margin: 0px 0px 0px 4px;&quot;&gt;+ refundPallet(const QString&amp;amp;) : ReturnStatus&lt;br style=&quot;border-color: var(--border-color);&quot;&gt;&lt;/p&gt;&lt;p style=&quot;border-color: var(--border-color); margin: 0px 0px 0px 4px;&quot;&gt;+ refundOrder(const QString&amp;amp;) : ReturnStatus&lt;/p&gt;&lt;p style=&quot;text-align: center ; margin: 0px 0px 0px 4px&quot;&gt;«signals»&lt;br&gt;&lt;/p&gt;&lt;p style=&quot;margin: 0px 0px 0px 4px&quot;&gt;+ logging(const QString&amp;amp;) : void&lt;/p&gt;" style="verticalAlign=top;align=left;overflow=fill;fontSize=12;fontFamily=Helvetica;html=1;" parent="1" vertex="1">
          <mxGeometry x="2140" y="-400" width="440" height="520" as="geometry" />
        </mxCell>
        <mxCell id="YVtpdUTHB4OTW118jndL-23" style="edgeStyle=orthogonalEdgeStyle;rounded=0;orthogonalLoop=1;jettySize=auto;html=1;entryX=1;entryY=0.5;entryDx=0;entryDy=0;" parent="1" source="YVtpdUTHB4OTW118jndL-21" target="YVtpdUTHB4OTW118jndL-10" edge="1">
          <mxGeometry relative="1" as="geometry" />
        </mxCell>
        <mxCell id="YVtpdUTHB4OTW118jndL-21" value="&lt;p style=&quot;margin: 0px ; margin-top: 4px ; text-align: center&quot;&gt;«interface»&lt;br&gt;&lt;/p&gt;&lt;p style=&quot;margin: 0px ; margin-top: 4px ; text-align: center&quot;&gt;&lt;b&gt;AdministrationManager&lt;/b&gt;&lt;/p&gt;&lt;hr size=&quot;1&quot;&gt;&lt;p style=&quot;text-align: center ; margin: 0px 0px 0px 4px&quot;&gt;«abstract»&lt;br&gt;&lt;/p&gt;&lt;p style=&quot;border-color: var(--border-color); text-align: center; margin: 0px 0px 0px 4px;&quot;&gt;«signals»&lt;br style=&quot;border-color: var(--border-color);&quot;&gt;&lt;/p&gt;&lt;p style=&quot;border-color: var(--border-color); margin: 0px 0px 0px 4px;&quot;&gt;+ displaySqlQueryResponse(const std::shared_ptr&amp;lt;QSqlQuery&amp;gt;) : void&lt;/p&gt;" style="verticalAlign=top;align=left;overflow=fill;fontSize=12;fontFamily=Helvetica;html=1;" parent="1" vertex="1">
          <mxGeometry x="2180" y="-640" width="360" height="160" as="geometry" />
        </mxCell>
        <mxCell id="YVtpdUTHB4OTW118jndL-24" value="Use" style="endArrow=open;endSize=12;dashed=1;html=1;rounded=0;exitX=0.25;exitY=0;exitDx=0;exitDy=0;entryX=0.75;entryY=1;entryDx=0;entryDy=0;" parent="1" source="YVtpdUTHB4OTW118jndL-10" target="YVtpdUTHB4OTW118jndL-5" edge="1">
          <mxGeometry width="160" relative="1" as="geometry">
            <mxPoint x="1560" y="-890" as="sourcePoint" />
            <mxPoint x="1720" y="-890" as="targetPoint" />
          </mxGeometry>
        </mxCell>
        <mxCell id="YVtpdUTHB4OTW118jndL-25" value="1" style="endArrow=open;html=1;endSize=12;startArrow=diamondThin;startSize=14;startFill=1;edgeStyle=orthogonalEdgeStyle;align=left;verticalAlign=bottom;rounded=0;entryX=1;entryY=0.5;entryDx=0;entryDy=0;exitX=0.5;exitY=0;exitDx=0;exitDy=0;" parent="1" source="YVtpdUTHB4OTW118jndL-13" target="YVtpdUTHB4OTW118jndL-21" edge="1">
          <mxGeometry x="-1" y="-10" relative="1" as="geometry">
            <mxPoint x="2860" y="-490" as="sourcePoint" />
            <mxPoint x="2860" y="-570" as="targetPoint" />
            <mxPoint as="offset" />
          </mxGeometry>
        </mxCell>
        <mxCell id="YVtpdUTHB4OTW118jndL-26" value="1" style="endArrow=open;html=1;endSize=12;startArrow=diamondThin;startSize=14;startFill=0;edgeStyle=orthogonalEdgeStyle;align=left;verticalAlign=bottom;rounded=0;entryX=1;entryY=0.5;entryDx=0;entryDy=0;" parent="1" source="YVtpdUTHB4OTW118jndL-13" target="YVtpdUTHB4OTW118jndL-18" edge="1">
          <mxGeometry x="-1" y="3" relative="1" as="geometry">
            <mxPoint x="2180" y="-420" as="sourcePoint" />
            <mxPoint x="2340" y="-420" as="targetPoint" />
          </mxGeometry>
        </mxCell>
        <mxCell id="YVtpdUTHB4OTW118jndL-27" value="&lt;p style=&quot;margin: 0px ; margin-top: 4px ; text-align: center&quot;&gt;«interface»&lt;br&gt;&lt;/p&gt;&lt;b style=&quot;border-color: var(--border-color);&quot;&gt;&lt;div style=&quot;text-align: center;&quot;&gt;&lt;b style=&quot;background-color: initial; border-color: var(--border-color);&quot;&gt;AbstractInfoSystem&lt;/b&gt;&lt;/div&gt;&lt;/b&gt;&lt;hr size=&quot;1&quot;&gt;&lt;p style=&quot;text-align: center ; margin: 0px 0px 0px 4px&quot;&gt;«abstract»&lt;/p&gt;&lt;p style=&quot;margin: 0px 0px 0px 4px;&quot;&gt;+ setSqlDatabase(std::shared_ptr&amp;lt;AbstractSqlDatabase&amp;gt;) : void&lt;/p&gt;&lt;p style=&quot;margin: 0px 0px 0px 4px;&quot;&gt;&lt;br&gt;&lt;/p&gt;&lt;p style=&quot;margin: 0px 0px 0px 4px;&quot;&gt;+ getTransponderData(const StringDictionary&amp;amp;, StringDictionary&amp;amp;) : ReturnStatus&lt;/p&gt;&lt;p style=&quot;margin: 0px 0px 0px 4px;&quot;&gt;+ getBoxData(const StringDictionary&amp;amp;, StringDictionary&amp;amp;) : ReturnStatus&lt;br&gt;&lt;/p&gt;&lt;p style=&quot;border-color: var(--border-color); margin: 0px 0px 0px 4px;&quot;&gt;+ getPalletData(const StringDictionary&amp;amp;, StringDictionary&amp;amp;) : ReturnStatus&lt;/p&gt;&lt;p style=&quot;border-color: var(--border-color); margin: 0px 0px 0px 4px;&quot;&gt;&lt;br&gt;&lt;/p&gt;&lt;p style=&quot;border-color: var(--border-color); margin: 0px 0px 0px 4px;&quot;&gt;+ shipPallets(const StringDictionary&amp;amp;) : ReturnStatus&lt;/p&gt;&lt;p style=&quot;border-color: var(--border-color); margin: 0px 0px 0px 4px;&quot;&gt;&lt;br&gt;&lt;/p&gt;&lt;p style=&quot;border-color: var(--border-color); margin: 0px 0px 0px 4px;&quot;&gt;+ getContainedUnits(const QString&amp;amp;, SqlQuery);&lt;/p&gt;&lt;p style=&quot;text-align: center ; margin: 0px 0px 0px 4px&quot;&gt;«signals»&lt;br&gt;&lt;/p&gt;&lt;p style=&quot;margin: 0px 0px 0px 4px&quot;&gt;+ logging(const QString&amp;amp;) : void&lt;/p&gt;" style="verticalAlign=top;align=left;overflow=fill;fontSize=12;fontFamily=Helvetica;html=1;" parent="1" vertex="1">
          <mxGeometry x="2140" y="160" width="440" height="320" as="geometry" />
        </mxCell>
        <mxCell id="YVtpdUTHB4OTW118jndL-29" value="1" style="endArrow=open;html=1;endSize=12;startArrow=diamondThin;startSize=14;startFill=1;edgeStyle=orthogonalEdgeStyle;align=left;verticalAlign=bottom;rounded=0;exitX=0;exitY=0.5;exitDx=0;exitDy=0;entryX=0.25;entryY=1;entryDx=0;entryDy=0;" parent="1" source="YVtpdUTHB4OTW118jndL-27" target="YVtpdUTHB4OTW118jndL-21" edge="1">
          <mxGeometry x="-0.9418" relative="1" as="geometry">
            <mxPoint x="2140" y="-430" as="sourcePoint" />
            <mxPoint x="2140" y="-510" as="targetPoint" />
            <mxPoint as="offset" />
            <Array as="points">
              <mxPoint x="2060" y="320" />
              <mxPoint x="2060" y="-440" />
              <mxPoint x="2270" y="-440" />
            </Array>
          </mxGeometry>
        </mxCell>
        <mxCell id="YVtpdUTHB4OTW118jndL-30" value="1" style="endArrow=open;html=1;endSize=12;startArrow=diamondThin;startSize=14;startFill=0;edgeStyle=orthogonalEdgeStyle;align=left;verticalAlign=bottom;rounded=0;entryX=1;entryY=0.5;entryDx=0;entryDy=0;exitX=0;exitY=0.75;exitDx=0;exitDy=0;" parent="1" source="YVtpdUTHB4OTW118jndL-13" target="YVtpdUTHB4OTW118jndL-27" edge="1">
          <mxGeometry x="-0.8605" relative="1" as="geometry">
            <mxPoint x="2770" y="200" as="sourcePoint" />
            <mxPoint x="2670" y="200" as="targetPoint" />
            <mxPoint as="offset" />
          </mxGeometry>
        </mxCell>
      </root>
    </mxGraphModel>
  </diagram>
</mxfile>
